:SAMPLES-PER-SECOND 24
:FULLY-SPECIFIED
:DEGREES
339
root  -9.74347 34.0925 6.67148 -168.922 -9.44945 174.686
RightUpLeg  28.4278 -6.88296 -14.6698
RightLeg  -1.86175 -15.6761 1.78816
RightFoot  -25.9659 2.76347 22.6495
RightToes  -1.46215e-006 3.27826e-006 1.63871e-007
Spine  3.39407 10.2942 10.8236
Spine1  5.82724 13.3494 -11.3208
HEad  -13.5488 -25.9855 -6.58875
LeftShoulder1  -0.240834 8.20135 3.81848
LeftArm  -108.614 -40.3992 75.5581
LeftForeArm  51.8068 -56.3832 -12.4406
LeftHand  -2.11333 0.958114 52.202
RightShoulder  0.741785 4.78799 0.576367
RightArm  -58.9883 64.3104 -15.4644
RightForeArm  1.23574 28.2872 6.05423
RightHand  -4.41064 8.55557 -35.8488
LeftUpLeg  -55.7316 -2.18312 0.0531978
LeftLeg  42.8284 -9.68071 -9.09178
LeftFoot  5.90559 1.04412 -7.11653
LeftToes  1.24762e-006 1.46925e-008 1.29056e-009
340
root  -9.64002 34.1103 6.65251 -168.97 -9.16891 174.695
RightUpLeg  28.3858 -6.86291 -14.6647
RightLeg  -1.84348 -15.0949 1.76308
RightFoot  -26.1603 2.84064 22.9385
RightToes  -1.46215e-006 3.27826e-006 1.63871e-007
Spine  3.37386 10.1537 10.5816
Spine1  5.95046 13.2848 -11.5773
HEad  -13.1145 -26.0688 -6.13458
LeftShoulder1  -0.230591 8.00343 3.81944
LeftArm  -108.168 -40.4775 75.1936
LeftForeArm  52.0456 -56.3467 -12.4018
LeftHand  -2.13234 0.891679 51.9245
RightShoulder  0.622705 4.67599 -0.948074
RightArm  -48.475 63.7213 -10.6454
RightForeArm  4.07697 29.131 6.10453
RightHand  -4.03335 7.10859 -36.5225
LeftUpLeg  -55.5669 -2.07924 0.332115
LeftLeg  42.6698 -9.55343 -8.92032
LeftFoot  5.91003 1.03196 -7.03486
LeftToes  1.24762e-006 1.46925e-008 1.29056e-009
341
root  -9.52226 34.1394 6.62134 -168.862 -9.03252 174.628
RightUpLeg  28.311 -6.84762 -14.5347
RightLeg  -2.00396 -15.6349 1.81905
RightFoot  -25.8179 2.71509 22.5026
RightToes  -1.46215e-006 3.27826e-006 1.63871e-007
Spine  3.63298 10.243 10.3597
Spine1  6.05513 13.5173 -11.9284
HEad  -13.4627 -26.1094 -5.81938
LeftShoulder1  -0.226413 7.93909 3.84716
LeftArm  -107.785 -40.157 74.8961
LeftForeArm  51.9155 -56.7197 -12.6175
LeftHand  -2.1015 0.966963 52.0379
RightShoulder  0.497208 4.46355 -2.52709
RightArm  -35.969 60.1355 -5.70862
RightForeArm  7.53103 34.6282 7.35552
RightHand  -4.27238 7.15167 -38.3683
LeftUpLeg  -55.5305 -2.13888 0.640868
LeftLeg  42.4988 -9.34898 -8.67271
LeftFoot  5.6522 1.07217 -7.40063
LeftToes  1.24762e-006 1.46925e-008 1.29056e-009
342
root  -9.38387 34.1193 6.52756 -168.418 -9.57605 174.295
RightUpLeg  28.4754 -6.56314 -13.8625
RightLeg  -2.70773 -16.7578 1.86718
RightFoot  -25.782 2.73524 22.7044
RightToes  -1.46215e-006 3.27826e-006 1.63871e-007
Spine  4.00203 10.0751 9.62162
Spine1  5.51194 13.454 -12.5657
HEad  -14.3596 -26.3905 -4.61666
LeftShoulder1  -0.191699 8.25959 5.09023
LeftArm  -107.203 -39.7239 73.9399
LeftForeArm  52.1854 -56.959 -12.7291
LeftHand  -2.07663 1.00865 51.9329
RightShoulder  0.309762 4.11786 -5.03305
RightArm  -18.242 54.7508 -0.421127
RightForeArm  14.1911 39.3054 8.10349
RightHand  -4.96797 8.91629 -39.3686
LeftUpLeg  -55.8549 -2.89298 0.841965
LeftLeg  42.3671 -9.31114 -8.59776
LeftFoot  5.61263 1.1579 -7.98759
LeftToes  1.24762e-006 1.46925e-008 1.29056e-009
343
root  -9.21431 34.1038 6.32638 -168.227 -10.0378 173.907
RightUpLeg  29.0429 -6.08613 -13.0385
RightLeg  -3.58901 -17.9346 1.76668
RightFoot  -25.3926 2.8074 23.8782
RightToes  -1.46215e-006 3.27826e-006 1.63871e-007
Spine  4.77587 9.87569 9.16963
Spine1  4.89627 13.8843 -15.339
HEad  -15.0709 -27.1976 -0.297827
LeftShoulder1  -0.067344 9.49462 8.35997
LeftArm  -108.75 -39.3733 73.6755
LeftForeArm  52.3939 -56.5484 -12.4849
LeftHand  -2.04825 1.02179 51.4487
RightShoulder  0.168546 4.46848 -7.24928
RightArm  13.8626 50.9524 8.41689
RightForeArm  12.3839 26.4328 4.68794
RightHand  -3.21019 7.02687 -29.8626
LeftUpLeg  -55.8394 -3.31605 0.960818
LeftLeg  42.4996 -8.77789 -8.13304
LeftFoot  4.62109 1.1569 -8.43566
LeftToes  1.24762e-006 1.46925e-008 1.29056e-009
344
root  -9.02248 34.1668 5.99085 -168.687 -9.89005 173.818
RightUpLeg  29.6382 -6.29415 -13.1768
RightLeg  -2.92531 -18.5399 1.89425
RightFoot  -23.9455 2.48479 23.6711
RightToes  -1.46215e-006 3.27826e-006 1.63871e-007
Spine  6.50946 10.2969 8.67769
Spine1  4.81837 15.2664 -18.6777
HEad  -17.7104 -28.253 5.44834
LeftShoulder1  0.128801 11.3241 11.5314
LeftArm  -111.281 -37.8854 74.3736
LeftForeArm  52.3566 -56.7566 -12.6024
LeftHand  -1.97288 1.11078 50.7004
RightShoulder  0.250999 5.39624 -6.45055
RightArm  0.377701 48.2822 12.7997
RightForeArm  46.9051 -4.13001 14.8411
RightHand  -0.556605 1.59468 -9.4043
LeftUpLeg  -55.0018 -2.79555 1.31908
LeftLeg  43.1893 -7.52821 -7.10876
LeftFoot  1.23758 1.00783 -9.19929
LeftToes  1.24762e-006 1.46925e-008 1.29056e-009
345
root  -8.91571 34.2788 5.44921 -169.223 -10.1432 173.887
RightUpLeg  28.6103 -9.00516 -15.6021
RightLeg  3.39294 -13.2064 1.7524
RightFoot  -23.9476 2.71429 25.581
RightToes  -1.46215e-006 3.27826e-006 1.63871e-007
Spine  8.28162 10.5738 6.3866
Spine1  4.7075 15.5622 -18.6288
HEad  -22.1027 -28.8911 8.63418
LeftShoulder1  0.208309 12.2592 12.3682
LeftArm  -110.2 -35.8484 73.4715
LeftForeArm  52.9105 -58.3076 -13.4615
LeftHand  -1.90139 1.20527 50.0667
RightShoulder  0.42051 5.71361 -4.44034
RightArm  -2.31222 43.6451 14.9801
RightForeArm  56.2162 -6.31785 14.726
RightHand  -0.0348937 -2.97775 -1.93079
LeftUpLeg  -53.8597 -2.9678 1.96742
LeftLeg  44.2114 -6.91124 -6.74296
LeftFoot  -2.64252 0.797039 -10.2448
LeftToes  1.24762e-006 1.46925e-008 1.29056e-009
346
root  -8.94387 34.5278 4.75747 -169.894 -10.8544 174.185
RightUpLeg  23.9088 -17.413 -20.7763
RightLeg  19.0474 -0.410963 0.665236
RightFoot  -21.8188 2.69452 30.9928
RightToes  -1.46215e-006 3.27826e-006 1.63871e-007
Spine  9.26936 10.074 3.17803
Spine1  5.08065 14.3059 -16.1047
HEad  -24.6903 -28.6729 9.45007
LeftShoulder1  0.157341 11.9464 11.7748
LeftArm  -106.949 -35.7401 70.9872
LeftForeArm  53.3277 -59.7302 -14.3276
LeftHand  -1.87284 1.23427 49.7102
RightShoulder  0.49458 5.64113 -3.47237
RightArm  2.21399 39.8836 18.1943
RightForeArm  51.4026 -6.14682 15.0082
RightHand  -0.0485343 -3.72206 -2.01305
LeftUpLeg  -52.0776 -4.11983 2.86089
LeftLeg  44.6415 -7.19363 -7.1343
LeftFoot  -5.09144 0.660579 -11.5053
LeftToes  1.24762e-006 1.46925e-008 1.29056e-009
347
root  -8.95532 34.9876 4.10995 -171.14 -10.8893 174.923
RightUpLeg  13.143 -17.5155 -21.1203
RightLeg  41.1364 -0.551831 -1.1612
RightFoot  -6.78221 -1.25653 29.9193
RightToes  -1.46215e-006 3.27826e-006 1.63871e-007
Spine  10.5381 9.69473 1.40734
Spine1  6.35775 13.5929 -14.8897
HEad  -25.2635 -27.6443 10.1581
LeftShoulder1  0.072802 11.2943 10.7268
LeftArm  -105.012 -37.752 68.988
LeftForeArm  52.8958 -60.3787 -14.8108
LeftHand  -1.76854 1.40651 49.0719
RightShoulder  0.613179 6.00652 -2.28496
RightArm  11.7484 39.5907 21.0146
RightForeArm  46.5941 -4.69897 16.2571
RightHand  -0.0739887 -2.9686 -2.8545
LeftUpLeg  -49.0262 -4.35772 3.9503
LeftLeg  43.8323 -7.49318 -7.22601
LeftFoot  -6.95221 0.557174 -13.438
LeftToes  1.24762e-006 1.46925e-008 1.29056e-009
348
root  -8.748 35.2515 3.74367 -171.858 -10.2373 175.126
RightUpLeg  -1.0681 -16.0546 -20.8245
RightLeg  61.258 0.534344 0.550701
RightFoot  8.7097 -3.70936 21.1073
RightToes  -1.46215e-006 3.27826e-006 1.63871e-007
Spine  12.5373 9.97425 -0.271573
Spine1  7.28818 13.7162 -15.328
HEad  -26.5258 -26.6821 11.2262
LeftShoulder1  -0.0410489 10.3855 8.97968
LeftArm  -102.135 -39.8526 67.2537
LeftForeArm  52.8146 -60.7648 -15.0921
LeftHand  -1.68218 1.54241 48.4279
RightShoulder  0.745268 6.39525 -1.04243
RightArm  13.5378 40.0957 21.5883
RightForeArm  49.2379 -3.99674 16.4679
RightHand  -0.0469059 -4.29935 -2.72367
LeftUpLeg  -46.9659 -3.60029 4.56674
LeftLeg  42.9763 -7.76512 -7.26141
LeftFoot  -8.00242 0.49177 -15.1607
LeftToes  1.24762e-006 1.46925e-008 1.29056e-009
349
root  -8.592 35.6334 3.18825 -172.028 -10.0655 175.408
RightUpLeg  -13.6756 -16.8443 -20.5526
RightLeg  73.658 2.99552 10.3506
RightFoot  7.53502 -2.4211 14.7259
RightToes  -1.46215e-006 3.27826e-006 1.63871e-007
Spine  13.5609 9.74281 -0.809492
Spine1  7.06766 13.5214 -15.4834
HEad  -28.6466 -26.3826 12.7646
LeftShoulder1  -0.135145 8.98963 6.85123
LeftArm  -96.1676 -41.0899 64.3583
LeftForeArm  53.1093 -61.2462 -15.4138
LeftHand  -1.77203 1.29164 47.9215
RightShoulder  0.738635 6.29515 -1.03314
RightArm  13.5443 40.7583 21.9802
RightForeArm  49.5813 -4.05907 16.4252
RightHand  -0.028621 -5.29605 -1.67007
LeftUpLeg  -44.7831 -2.65098 4.83799
LeftLeg  41.1522 -8.56944 -7.53366
LeftFoot  -7.43219 0.570372 -15.341
LeftToes  1.24762e-006 1.46925e-008 1.29056e-009
350
root  -8.4863 36.1621 2.47432 -172.681 -10.112 176.005
RightUpLeg  -23.2452 -19.6684 -19.8121
RightLeg  76.2312 3.68614 15.675
RightFoot  -1.77099 -1.28361 15.5634
RightToes  -1.46215e-006 3.27826e-006 1.63871e-007
Spine  13.8714 9.2396 0.11821
Spine1  7.29191 13.4236 -15.4271
HEad  -30.3045 -26.5507 14.5595
LeftShoulder1  -0.161527 7.63441 5.22186
LeftArm  -88.9446 -42.2671 59.552
LeftForeArm  52.9601 -62.7043 -16.5542
LeftHand  -1.70506 1.32728 46.6365
RightShoulder  0.684489 6.00081 -1.41701
RightArm  12.7602 42.8729 22.2551
RightForeArm  50.5091 -4.01819 16.4006
RightHand  -0.0342052 -6.13781 -0.0193918
LeftUpLeg  -41.4632 -1.12949 5.13105
LeftLeg  38.5342 -9.65476 -7.76343
LeftFoot  -6.09148 0.757351 -15.6155
LeftToes  1.24762e-006 1.46925e-008 1.29056e-009
351
root  -8.27375 36.5858 1.74675 -173.561 -10.3085 176.368
RightUpLeg  -30.3001 -23.2866 -17.826
RightLeg  69.0423 4.27449 11.7667
RightFoot  -6.41207 -0.732646 15.7454
RightToes  -1.46215e-006 3.27826e-006 1.63871e-007
Spine  14.1799 8.7326 1.42891
Spine1  7.74061 13.5521 -15.9881
HEad  -30.9687 -26.9295 15.8252
LeftShoulder1  -0.159756 6.47299 3.55896
LeftArm  -80.4363 -43.6352 51.8812
LeftForeArm  53.5495 -66.217 -19.836
LeftHand  -1.46462 1.79393 45.4688
RightShoulder  0.6662 5.75745 -1.4268
RightArm  8.99918 45.2592 22.0758
RightForeArm  54.4126 -4.4066 16.0334
RightHand  -0.0719671 -7.45422 1.60952
LeftUpLeg  -38.1665 0.666214 5.29483
LeftLeg  36.378 -11.5553 -8.62747
LeftFoot  -4.49739 0.94564 -15.2865
LeftToes  1.24762e-006 1.46925e-008 1.29056e-009
352
root  -8.0573 37.1614 0.960782 -173.898 -10.9954 177.019
RightUpLeg  -34.032 -26.7845 -14.4068
RightLeg  52.7103 7.65474 10.2999
RightFoot  -6.67348 -0.650107 14.7546
RightToes  -1.46215e-006 3.27826e-006 1.63871e-007
Spine  13.9571 7.97728 4.15995
Spine1  7.70929 13.3885 -16.4677
HEad  -31.0085 -27.4426 16.8366
LeftShoulder1  -0.122169 5.04289 0.607783
LeftArm  -68.643 -44.0549 41.0636
LeftForeArm  58.1351 -72.0211 -28.2412
LeftHand  -1.37233 1.99135 45.1476
RightShoulder  0.657954 5.57709 -1.36752
RightArm  6.32856 47.0477 22.5303
RightForeArm  55.74 -4.88121 15.7111
RightHand  -0.11482 -8.13585 2.801
LeftUpLeg  -34.8287 1.56786 5.90064
LeftLeg  32.7709 -13.3345 -8.7351
LeftFoot  -2.66864 1.05711 -13.6785
LeftToes  1.24762e-006 1.46925e-008 1.29056e-009
